<mxfile host="app.diagrams.net" agent="Mozilla/5.0 (X11; Linux x86_64) AppleWebKit/537.36 (KHTML, like Gecko) Chrome/134.0.0.0 Safari/537.36" version="26.2.12">
  <diagram id="Ht1M8jgEwFfnCIfOTk4-" name="Page-1">
    <mxGraphModel dx="1428" dy="859" grid="1" gridSize="10" guides="1" tooltips="1" connect="1" arrows="1" fold="1" page="1" pageScale="1" pageWidth="1169" pageHeight="827" background="none" math="0" shadow="0">
      <root>
        <mxCell id="0" />
        <mxCell id="1" parent="0" />
        <mxCell id="NqZfyHsAsj6Lfv5j9xIO-83" value="" style="group" vertex="1" connectable="0" parent="1">
          <mxGeometry x="42.5" y="280" width="1077.5" height="920" as="geometry" />
        </mxCell>
        <mxCell id="SqRQf7GEcAec7zgn-4Vo-8" value="AWS Cloud" style="points=[[0,0],[0.25,0],[0.5,0],[0.75,0],[1,0],[1,0.25],[1,0.5],[1,0.75],[1,1],[0.75,1],[0.5,1],[0.25,1],[0,1],[0,0.75],[0,0.5],[0,0.25]];outlineConnect=0;gradientColor=none;html=1;whiteSpace=wrap;fontSize=12;fontStyle=0;container=1;pointerEvents=0;collapsible=0;recursiveResize=0;shape=mxgraph.aws4.group;grIcon=mxgraph.aws4.group_aws_cloud_alt;strokeColor=#232F3E;fillColor=none;verticalAlign=top;align=left;spacingLeft=30;fontColor=#232F3E;dashed=0;" parent="NqZfyHsAsj6Lfv5j9xIO-83" vertex="1">
          <mxGeometry width="1077.5" height="920" as="geometry" />
        </mxCell>
        <mxCell id="NqZfyHsAsj6Lfv5j9xIO-82" value="" style="group" vertex="1" connectable="0" parent="NqZfyHsAsj6Lfv5j9xIO-83">
          <mxGeometry x="37.5" y="40" width="995" height="840" as="geometry" />
        </mxCell>
        <mxCell id="NqZfyHsAsj6Lfv5j9xIO-81" value="" style="group" vertex="1" connectable="0" parent="NqZfyHsAsj6Lfv5j9xIO-82">
          <mxGeometry x="12.5" y="31" width="970" height="800" as="geometry" />
        </mxCell>
        <mxCell id="NqZfyHsAsj6Lfv5j9xIO-80" value="" style="group" vertex="1" connectable="0" parent="NqZfyHsAsj6Lfv5j9xIO-81">
          <mxGeometry x="15" y="70" width="940" height="710" as="geometry" />
        </mxCell>
        <mxCell id="NqZfyHsAsj6Lfv5j9xIO-38" value="" style="group" vertex="1" connectable="0" parent="NqZfyHsAsj6Lfv5j9xIO-80">
          <mxGeometry y="250" width="940" height="460" as="geometry" />
        </mxCell>
        <mxCell id="NqZfyHsAsj6Lfv5j9xIO-2" value="&lt;b&gt;subnet-privada-proyecto-ivan&lt;/b&gt;" style="points=[[0,0],[0.25,0],[0.5,0],[0.75,0],[1,0],[1,0.25],[1,0.5],[1,0.75],[1,1],[0.75,1],[0.5,1],[0.25,1],[0,1],[0,0.75],[0,0.5],[0,0.25]];outlineConnect=0;html=1;whiteSpace=wrap;fontSize=12;fontStyle=0;container=0;pointerEvents=0;collapsible=0;recursiveResize=0;shape=mxgraph.aws4.group;grIcon=mxgraph.aws4.group_security_group;grStroke=0;strokeColor=#b85450;fillColor=#f8cecc;verticalAlign=top;align=left;spacingLeft=30;dashed=0;" vertex="1" parent="NqZfyHsAsj6Lfv5j9xIO-38">
          <mxGeometry width="940" height="460" as="geometry" />
        </mxCell>
        <mxCell id="NqZfyHsAsj6Lfv5j9xIO-37" value="" style="group" vertex="1" connectable="0" parent="NqZfyHsAsj6Lfv5j9xIO-38">
          <mxGeometry x="20" y="29.99999999999997" width="900" height="414.22" as="geometry" />
        </mxCell>
        <mxCell id="NqZfyHsAsj6Lfv5j9xIO-33" value="Security group LDAP" style="fillColor=none;strokeColor=#DD3522;verticalAlign=top;fontStyle=0;fontColor=#DD3522;whiteSpace=wrap;html=1;" vertex="1" parent="NqZfyHsAsj6Lfv5j9xIO-37">
          <mxGeometry width="899.9999999999999" height="200" as="geometry" />
        </mxCell>
        <mxCell id="NqZfyHsAsj6Lfv5j9xIO-26" value="" style="group" vertex="1" connectable="0" parent="NqZfyHsAsj6Lfv5j9xIO-37">
          <mxGeometry y="214.22000000000003" width="900" height="200" as="geometry" />
        </mxCell>
        <mxCell id="NqZfyHsAsj6Lfv5j9xIO-3" value="Security group ThinLinc" style="fillColor=none;strokeColor=#DD3522;verticalAlign=top;fontStyle=0;fontColor=#DD3522;whiteSpace=wrap;html=1;" vertex="1" parent="NqZfyHsAsj6Lfv5j9xIO-26">
          <mxGeometry width="899.9999999999999" height="200" as="geometry" />
        </mxCell>
        <mxCell id="NqZfyHsAsj6Lfv5j9xIO-22" value="" style="group" vertex="1" connectable="0" parent="NqZfyHsAsj6Lfv5j9xIO-26">
          <mxGeometry x="512.3076923076923" y="33.33333333333333" width="124.61538461538461" height="166.66666666666663" as="geometry" />
        </mxCell>
        <mxCell id="NqZfyHsAsj6Lfv5j9xIO-6" value="" style="sketch=0;points=[[0,0,0],[0.25,0,0],[0.5,0,0],[0.75,0,0],[1,0,0],[0,1,0],[0.25,1,0],[0.5,1,0],[0.75,1,0],[1,1,0],[0,0.25,0],[0,0.5,0],[0,0.75,0],[1,0.25,0],[1,0.5,0],[1,0.75,0]];outlineConnect=0;fontColor=#232F3E;fillColor=#ED7100;strokeColor=#ffffff;dashed=0;verticalLabelPosition=bottom;verticalAlign=top;align=center;html=1;fontSize=12;fontStyle=0;aspect=fixed;shape=mxgraph.aws4.resourceIcon;resIcon=mxgraph.aws4.ec2;" vertex="1" parent="NqZfyHsAsj6Lfv5j9xIO-22">
          <mxGeometry y="33.33333333333333" width="100" height="100" as="geometry" />
        </mxCell>
        <mxCell id="NqZfyHsAsj6Lfv5j9xIO-18" value="10.0.2.21" style="text;html=1;align=center;verticalAlign=middle;resizable=0;points=[];autosize=1;strokeColor=none;fillColor=none;" vertex="1" parent="NqZfyHsAsj6Lfv5j9xIO-22">
          <mxGeometry x="13.846153846153847" y="133.33333333333331" width="70" height="30" as="geometry" />
        </mxCell>
        <mxCell id="NqZfyHsAsj6Lfv5j9xIO-24" value="" style="group" vertex="1" connectable="0" parent="NqZfyHsAsj6Lfv5j9xIO-26">
          <mxGeometry x="263.0769230769231" y="33.33333333333333" width="124.61538461538461" height="166.66666666666663" as="geometry" />
        </mxCell>
        <mxCell id="NqZfyHsAsj6Lfv5j9xIO-5" value="" style="sketch=0;points=[[0,0,0],[0.25,0,0],[0.5,0,0],[0.75,0,0],[1,0,0],[0,1,0],[0.25,1,0],[0.5,1,0],[0.75,1,0],[1,1,0],[0,0.25,0],[0,0.5,0],[0,0.75,0],[1,0.25,0],[1,0.5,0],[1,0.75,0]];outlineConnect=0;fontColor=#232F3E;fillColor=#ED7100;strokeColor=#ffffff;dashed=0;verticalLabelPosition=bottom;verticalAlign=top;align=center;html=1;fontSize=12;fontStyle=0;aspect=fixed;shape=mxgraph.aws4.resourceIcon;resIcon=mxgraph.aws4.ec2;" vertex="1" parent="NqZfyHsAsj6Lfv5j9xIO-24">
          <mxGeometry y="33.33333333333333" width="100" height="100" as="geometry" />
        </mxCell>
        <mxCell id="NqZfyHsAsj6Lfv5j9xIO-11" value="TLMaestro2" style="text;html=1;align=center;verticalAlign=middle;resizable=0;points=[];autosize=1;strokeColor=none;fillColor=none;fontStyle=1" vertex="1" parent="NqZfyHsAsj6Lfv5j9xIO-24">
          <mxGeometry x="5.056179775280899" y="6.67" width="90" height="30" as="geometry" />
        </mxCell>
        <mxCell id="NqZfyHsAsj6Lfv5j9xIO-15" value="10.0.2.12" style="text;html=1;align=center;verticalAlign=middle;resizable=0;points=[];autosize=1;strokeColor=none;fillColor=none;" vertex="1" parent="NqZfyHsAsj6Lfv5j9xIO-24">
          <mxGeometry x="13.846153846153847" y="133.33333333333331" width="70" height="30" as="geometry" />
        </mxCell>
        <mxCell id="NqZfyHsAsj6Lfv5j9xIO-23" value="" style="group" vertex="1" connectable="0" parent="NqZfyHsAsj6Lfv5j9xIO-26">
          <mxGeometry x="761.5384615384614" y="33.33333333333333" width="124.61538461538461" height="166.66666666666663" as="geometry" />
        </mxCell>
        <mxCell id="NqZfyHsAsj6Lfv5j9xIO-7" value="" style="sketch=0;points=[[0,0,0],[0.25,0,0],[0.5,0,0],[0.75,0,0],[1,0,0],[0,1,0],[0.25,1,0],[0.5,1,0],[0.75,1,0],[1,1,0],[0,0.25,0],[0,0.5,0],[0,0.75,0],[1,0.25,0],[1,0.5,0],[1,0.75,0]];outlineConnect=0;fontColor=#232F3E;fillColor=#ED7100;strokeColor=#ffffff;dashed=0;verticalLabelPosition=bottom;verticalAlign=top;align=center;html=1;fontSize=12;fontStyle=0;aspect=fixed;shape=mxgraph.aws4.resourceIcon;resIcon=mxgraph.aws4.ec2;" vertex="1" parent="NqZfyHsAsj6Lfv5j9xIO-23">
          <mxGeometry y="33.33333333333333" width="100" height="100" as="geometry" />
        </mxCell>
        <mxCell id="NqZfyHsAsj6Lfv5j9xIO-13" value="TLAgente2" style="text;html=1;align=center;verticalAlign=middle;resizable=0;points=[];autosize=1;strokeColor=none;fillColor=none;fontStyle=1" vertex="1" parent="NqZfyHsAsj6Lfv5j9xIO-23">
          <mxGeometry x="10.10847018150389" y="6.67" width="80" height="30" as="geometry" />
        </mxCell>
        <mxCell id="NqZfyHsAsj6Lfv5j9xIO-21" value="10.0.2.22" style="text;html=1;align=center;verticalAlign=middle;resizable=0;points=[];autosize=1;strokeColor=none;fillColor=none;" vertex="1" parent="NqZfyHsAsj6Lfv5j9xIO-23">
          <mxGeometry x="13.846153846153847" y="133.33333333333331" width="70" height="30" as="geometry" />
        </mxCell>
        <mxCell id="NqZfyHsAsj6Lfv5j9xIO-25" value="" style="group" vertex="1" connectable="0" parent="NqZfyHsAsj6Lfv5j9xIO-26">
          <mxGeometry x="13.846153846153848" y="33.33333333333333" width="124.61538461538461" height="166.66666666666663" as="geometry" />
        </mxCell>
        <mxCell id="NqZfyHsAsj6Lfv5j9xIO-4" value="" style="sketch=0;points=[[0,0,0],[0.25,0,0],[0.5,0,0],[0.75,0,0],[1,0,0],[0,1,0],[0.25,1,0],[0.5,1,0],[0.75,1,0],[1,1,0],[0,0.25,0],[0,0.5,0],[0,0.75,0],[1,0.25,0],[1,0.5,0],[1,0.75,0]];outlineConnect=0;fontColor=#232F3E;fillColor=#ED7100;strokeColor=#ffffff;dashed=0;verticalLabelPosition=bottom;verticalAlign=top;align=center;html=1;fontSize=12;fontStyle=0;aspect=fixed;shape=mxgraph.aws4.resourceIcon;resIcon=mxgraph.aws4.ec2;" vertex="1" parent="NqZfyHsAsj6Lfv5j9xIO-25">
          <mxGeometry y="33.33333333333333" width="100" height="100" as="geometry" />
        </mxCell>
        <mxCell id="NqZfyHsAsj6Lfv5j9xIO-14" value="10.0.2.11" style="text;html=1;align=center;verticalAlign=middle;resizable=0;points=[];autosize=1;strokeColor=none;fillColor=none;" vertex="1" parent="NqZfyHsAsj6Lfv5j9xIO-25">
          <mxGeometry x="13.846153846153847" y="133.33333333333331" width="70" height="30" as="geometry" />
        </mxCell>
        <mxCell id="NqZfyHsAsj6Lfv5j9xIO-20" value="&lt;b&gt;TLMaestro1&lt;/b&gt;" style="text;html=1;align=center;verticalAlign=middle;resizable=0;points=[];autosize=1;strokeColor=none;fillColor=none;" vertex="1" parent="NqZfyHsAsj6Lfv5j9xIO-26">
          <mxGeometry x="20.227052722558327" y="40.003333333333316" width="90" height="30" as="geometry" />
        </mxCell>
        <mxCell id="NqZfyHsAsj6Lfv5j9xIO-12" value="TLAgente1" style="text;html=1;align=center;verticalAlign=middle;resizable=0;points=[];autosize=1;strokeColor=none;fillColor=none;labelBorderColor=none;labelBackgroundColor=none;fontStyle=1" vertex="1" parent="NqZfyHsAsj6Lfv5j9xIO-26">
          <mxGeometry x="521.1015557476231" y="40.003333333333316" width="80" height="30" as="geometry" />
        </mxCell>
        <mxCell id="NqZfyHsAsj6Lfv5j9xIO-34" value="" style="group" vertex="1" connectable="0" parent="NqZfyHsAsj6Lfv5j9xIO-37">
          <mxGeometry x="394.99923076923073" y="44.22000000000003" width="100" height="155.39" as="geometry" />
        </mxCell>
        <mxCell id="NqZfyHsAsj6Lfv5j9xIO-28" value="" style="sketch=0;points=[[0,0,0],[0.25,0,0],[0.5,0,0],[0.75,0,0],[1,0,0],[0,1,0],[0.25,1,0],[0.5,1,0],[0.75,1,0],[1,1,0],[0,0.25,0],[0,0.5,0],[0,0.75,0],[1,0.25,0],[1,0.5,0],[1,0.75,0]];outlineConnect=0;fontColor=#232F3E;fillColor=#ED7100;strokeColor=#ffffff;dashed=0;verticalLabelPosition=bottom;verticalAlign=top;align=center;html=1;fontSize=12;fontStyle=0;aspect=fixed;shape=mxgraph.aws4.resourceIcon;resIcon=mxgraph.aws4.ec2;" vertex="1" parent="NqZfyHsAsj6Lfv5j9xIO-34">
          <mxGeometry y="25.38666666666667" width="100" height="100" as="geometry" />
        </mxCell>
        <mxCell id="NqZfyHsAsj6Lfv5j9xIO-29" value="10.0.2.30" style="text;html=1;align=center;verticalAlign=middle;resizable=0;points=[];autosize=1;strokeColor=none;fillColor=none;" vertex="1" parent="NqZfyHsAsj6Lfv5j9xIO-34">
          <mxGeometry x="16.000769230769265" y="125.38999999999999" width="70" height="30" as="geometry" />
        </mxCell>
        <mxCell id="NqZfyHsAsj6Lfv5j9xIO-30" value="&lt;b&gt;LDAP&lt;/b&gt;" style="text;html=1;align=center;verticalAlign=middle;resizable=0;points=[];autosize=1;strokeColor=none;fillColor=none;" vertex="1" parent="NqZfyHsAsj6Lfv5j9xIO-34">
          <mxGeometry x="21.000769230769265" width="60" height="30" as="geometry" />
        </mxCell>
        <mxCell id="NqZfyHsAsj6Lfv5j9xIO-1" value="subnet-publica-proyecto-ivan" style="points=[[0,0],[0.25,0],[0.5,0],[0.75,0],[1,0],[1,0.25],[1,0.5],[1,0.75],[1,1],[0.75,1],[0.5,1],[0.25,1],[0,1],[0,0.75],[0,0.5],[0,0.25]];outlineConnect=0;html=1;whiteSpace=wrap;fontSize=12;fontStyle=0;container=1;pointerEvents=0;collapsible=0;recursiveResize=0;shape=mxgraph.aws4.group;grIcon=mxgraph.aws4.group_security_group;grStroke=0;strokeColor=#d6b656;fillColor=#fff2cc;verticalAlign=top;align=left;spacingLeft=30;dashed=0;" vertex="1" parent="NqZfyHsAsj6Lfv5j9xIO-80">
          <mxGeometry width="940" height="245" as="geometry" />
        </mxCell>
        <mxCell id="NqZfyHsAsj6Lfv5j9xIO-79" value="" style="group" vertex="1" connectable="0" parent="NqZfyHsAsj6Lfv5j9xIO-1">
          <mxGeometry x="20" y="30" width="900" height="200" as="geometry" />
        </mxCell>
        <mxCell id="NqZfyHsAsj6Lfv5j9xIO-65" value="Security group LDAP" style="fillColor=none;strokeColor=#DD3522;verticalAlign=top;fontStyle=0;fontColor=#DD3522;whiteSpace=wrap;html=1;" vertex="1" parent="NqZfyHsAsj6Lfv5j9xIO-79">
          <mxGeometry width="900" height="200" as="geometry" />
        </mxCell>
        <mxCell id="NqZfyHsAsj6Lfv5j9xIO-36" value="" style="sketch=0;points=[[0,0,0],[0.25,0,0],[0.5,0,0],[0.75,0,0],[1,0,0],[0,1,0],[0.25,1,0],[0.5,1,0],[0.75,1,0],[1,1,0],[0,0.25,0],[0,0.5,0],[0,0.75,0],[1,0.25,0],[1,0.5,0],[1,0.75,0]];outlineConnect=0;fontColor=#232F3E;fillColor=#ED7100;strokeColor=#ffffff;dashed=0;verticalLabelPosition=bottom;verticalAlign=top;align=center;html=1;fontSize=12;fontStyle=0;aspect=fixed;shape=mxgraph.aws4.resourceIcon;resIcon=mxgraph.aws4.ec2;" vertex="1" parent="NqZfyHsAsj6Lfv5j9xIO-79">
          <mxGeometry x="120" y="70" width="100" height="100" as="geometry" />
        </mxCell>
        <mxCell id="NqZfyHsAsj6Lfv5j9xIO-39" value="" style="sketch=0;points=[[0,0,0],[0.25,0,0],[0.5,0,0],[0.75,0,0],[1,0,0],[0,1,0],[0.25,1,0],[0.5,1,0],[0.75,1,0],[1,1,0],[0,0.25,0],[0,0.5,0],[0,0.75,0],[1,0.25,0],[1,0.5,0],[1,0.75,0]];outlineConnect=0;fontColor=#232F3E;fillColor=#ED7100;strokeColor=#ffffff;dashed=0;verticalLabelPosition=bottom;verticalAlign=top;align=center;html=1;fontSize=12;fontStyle=0;aspect=fixed;shape=mxgraph.aws4.resourceIcon;resIcon=mxgraph.aws4.ec2;" vertex="1" parent="NqZfyHsAsj6Lfv5j9xIO-79">
          <mxGeometry x="400" y="70" width="100" height="100" as="geometry" />
        </mxCell>
        <mxCell id="NqZfyHsAsj6Lfv5j9xIO-40" value="" style="sketch=0;points=[[0,0,0],[0.25,0,0],[0.5,0,0],[0.75,0,0],[1,0,0],[0,1,0],[0.25,1,0],[0.5,1,0],[0.75,1,0],[1,1,0],[0,0.25,0],[0,0.5,0],[0,0.75,0],[1,0.25,0],[1,0.5,0],[1,0.75,0]];outlineConnect=0;fontColor=#232F3E;fillColor=#ED7100;strokeColor=#ffffff;dashed=0;verticalLabelPosition=bottom;verticalAlign=top;align=center;html=1;fontSize=12;fontStyle=0;aspect=fixed;shape=mxgraph.aws4.resourceIcon;resIcon=mxgraph.aws4.ec2;" vertex="1" parent="NqZfyHsAsj6Lfv5j9xIO-79">
          <mxGeometry x="680" y="70" width="100" height="100" as="geometry" />
        </mxCell>
        <mxCell id="NqZfyHsAsj6Lfv5j9xIO-66" value="&lt;b&gt;WireGuard&lt;/b&gt;" style="text;html=1;align=center;verticalAlign=middle;resizable=0;points=[];autosize=1;strokeColor=none;fillColor=none;" vertex="1" parent="NqZfyHsAsj6Lfv5j9xIO-79">
          <mxGeometry x="410" y="45" width="80" height="30" as="geometry" />
        </mxCell>
        <mxCell id="NqZfyHsAsj6Lfv5j9xIO-67" value="&lt;b&gt;Zabbyx&lt;/b&gt;" style="text;html=1;align=center;verticalAlign=middle;resizable=0;points=[];autosize=1;strokeColor=none;fillColor=none;" vertex="1" parent="NqZfyHsAsj6Lfv5j9xIO-79">
          <mxGeometry x="135" y="45" width="70" height="30" as="geometry" />
        </mxCell>
        <mxCell id="NqZfyHsAsj6Lfv5j9xIO-68" value="APACHE2" style="text;html=1;align=center;verticalAlign=middle;resizable=0;points=[];autosize=1;strokeColor=none;fillColor=none;fontStyle=1" vertex="1" parent="NqZfyHsAsj6Lfv5j9xIO-79">
          <mxGeometry x="690" y="45" width="80" height="30" as="geometry" />
        </mxCell>
        <mxCell id="NqZfyHsAsj6Lfv5j9xIO-69" value="10.0.1.10" style="text;html=1;align=center;verticalAlign=middle;resizable=0;points=[];autosize=1;strokeColor=none;fillColor=none;" vertex="1" parent="NqZfyHsAsj6Lfv5j9xIO-79">
          <mxGeometry x="415" y="170" width="70" height="30" as="geometry" />
        </mxCell>
        <mxCell id="NqZfyHsAsj6Lfv5j9xIO-70" value="10.0.1.20" style="text;html=1;align=center;verticalAlign=middle;resizable=0;points=[];autosize=1;strokeColor=none;fillColor=none;" vertex="1" parent="NqZfyHsAsj6Lfv5j9xIO-79">
          <mxGeometry x="135" y="170" width="70" height="30" as="geometry" />
        </mxCell>
        <mxCell id="NqZfyHsAsj6Lfv5j9xIO-71" value="10.0.1.30" style="text;html=1;align=center;verticalAlign=middle;resizable=0;points=[];autosize=1;strokeColor=none;fillColor=none;" vertex="1" parent="NqZfyHsAsj6Lfv5j9xIO-79">
          <mxGeometry x="695" y="170" width="70" height="30" as="geometry" />
        </mxCell>
        <mxCell id="SqRQf7GEcAec7zgn-4Vo-11" value="VPC / vpc-proyecto-ivan" style="points=[[0,0],[0.25,0],[0.5,0],[0.75,0],[1,0],[1,0.25],[1,0.5],[1,0.75],[1,1],[0.75,1],[0.5,1],[0.25,1],[0,1],[0,0.75],[0,0.5],[0,0.25]];outlineConnect=0;gradientColor=none;html=1;whiteSpace=wrap;fontSize=12;fontStyle=0;container=1;pointerEvents=0;collapsible=0;recursiveResize=0;shape=mxgraph.aws4.group;grIcon=mxgraph.aws4.group_vpc2;strokeColor=#8C4FFF;fillColor=none;verticalAlign=top;align=left;spacingLeft=30;fontColor=#AAB7B8;dashed=0;" parent="NqZfyHsAsj6Lfv5j9xIO-81" vertex="1">
          <mxGeometry width="970" height="800" as="geometry" />
        </mxCell>
        <mxCell id="SqRQf7GEcAec7zgn-4Vo-9" value="Region / us-east-1" style="points=[[0,0],[0.25,0],[0.5,0],[0.75,0],[1,0],[1,0.25],[1,0.5],[1,0.75],[1,1],[0.75,1],[0.5,1],[0.25,1],[0,1],[0,0.75],[0,0.5],[0,0.25]];outlineConnect=0;gradientColor=none;html=1;whiteSpace=wrap;fontSize=12;fontStyle=0;container=1;pointerEvents=0;collapsible=0;recursiveResize=0;shape=mxgraph.aws4.group;grIcon=mxgraph.aws4.group_region;strokeColor=#00A4A6;fillColor=none;verticalAlign=top;align=left;spacingLeft=30;fontColor=#147EBA;dashed=1;" parent="NqZfyHsAsj6Lfv5j9xIO-82" vertex="1">
          <mxGeometry width="995" height="840" as="geometry" />
        </mxCell>
        <mxCell id="NqZfyHsAsj6Lfv5j9xIO-78" style="edgeStyle=orthogonalEdgeStyle;rounded=0;orthogonalLoop=1;jettySize=auto;html=1;exitX=0.5;exitY=1;exitDx=0;exitDy=0;" edge="1" parent="NqZfyHsAsj6Lfv5j9xIO-82" source="SqRQf7GEcAec7zgn-4Vo-9" target="SqRQf7GEcAec7zgn-4Vo-9">
          <mxGeometry relative="1" as="geometry" />
        </mxCell>
      </root>
    </mxGraphModel>
  </diagram>
</mxfile>
